<svg width="73" height="72" viewBox="0 0 73 72" fill="none" xmlns="http://www.w3.org/2000/svg">
<g clip-path="url(#clip0_1_182)">
<g clip-path="url(#clip1_1_182)">
<g clip-path="url(#clip2_1_182)">
<path d="M43.25 43.875V32.625H29.75V43.875L13.55 65.475C11.8817 67.7003 13.469 70.875 16.25 70.875H56.75C59.531 70.875 61.1184 67.7003 59.45 65.475L43.25 43.875Z" fill="#6FA4D8"/>
</g>
<g clip-path="url(#clip3_1_182)">
<path d="M59.45 65.475L43.25 43.875V32.625H36.5H29.75V35.4375H34.8125C35.744 35.4375 36.5 36.1935 36.5 37.125V43.875L45.5 70.875H56.75C59.531 70.875 61.1184 67.7003 59.45 65.475Z" fill="#5C76B2"/>
</g>
<g clip-path="url(#clip4_1_182)">
<path d="M43.25 32.625H29.75C28.5069 32.625 27.5 31.6181 27.5 30.375C27.5 29.1319 28.5069 28.125 29.75 28.125H43.25C44.4931 28.125 45.5 29.1319 45.5 30.375C45.5 31.6181 44.4931 32.625 43.25 32.625Z" fill="#6FA4D8"/>
</g>
<g clip-path="url(#clip5_1_182)">
<path d="M43.25 28.125H36.5C37.7431 28.125 38.75 29.1319 38.75 30.375C38.75 31.6181 37.7431 32.625 36.5 32.625H43.25C44.4931 32.625 45.5 31.6181 45.5 30.375C45.5 29.1319 44.4931 28.125 43.25 28.125Z" fill="#5C76B2"/>
</g>
<g clip-path="url(#clip6_1_182)">
<path d="M54.5 66.3751H18.5L26.9375 55.1251L26.9386 55.1239C29.3281 51.9357 34.1105 51.9346 36.5011 55.1217L36.5022 55.1228C38.8929 58.3088 43.6707 58.3099 46.0625 55.1251L54.5 66.3751Z" fill="#F68820"/>
</g>
<g clip-path="url(#clip7_1_182)">
<path d="M46.0625 55.1251L46.0614 55.1239C43.6719 51.9357 38.8895 51.9346 36.4989 55.1217L36.4977 55.1228C34.1071 58.3088 29.3293 58.3099 26.9375 55.1251L18.5 66.3751H54.5L46.0625 55.1251Z" fill="#FBBE18"/>
</g>
<g clip-path="url(#clip8_1_182)">
<path d="M46.0625 55.1251L46.0613 55.124C44.4751 53.0067 41.8358 52.3036 39.5408 52.9977L44.0003 66.3751H54.5L46.0625 55.1251Z" fill="#F68820"/>
</g>
<g clip-path="url(#clip9_1_182)">
<path d="M32.5625 62.4375C33.4945 62.4375 34.25 61.682 34.25 60.75C34.25 59.818 33.4945 59.0625 32.5625 59.0625C31.6305 59.0625 30.875 59.818 30.875 60.75C30.875 61.682 31.6305 62.4375 32.5625 62.4375Z" fill="#F68820"/>
</g>
<g clip-path="url(#clip10_1_182)">
<path d="M28.625 64.6875C29.2463 64.6875 29.75 64.1838 29.75 63.5625C29.75 62.9412 29.2463 62.4375 28.625 62.4375C28.0037 62.4375 27.5 62.9412 27.5 63.5625C27.5 64.1838 28.0037 64.6875 28.625 64.6875Z" fill="#F68820"/>
</g>
<g clip-path="url(#clip11_1_182)">
<path d="M30.875 21.375C33.9816 21.375 36.5 18.8566 36.5 15.75C36.5 12.6434 33.9816 10.125 30.875 10.125C27.7684 10.125 25.25 12.6434 25.25 15.75C25.25 18.8566 27.7684 21.375 30.875 21.375Z" fill="#F68820"/>
</g>
<g clip-path="url(#clip12_1_182)">
<path d="M29.1875 15.75C30.1195 15.75 30.875 14.9945 30.875 14.0625C30.875 13.1305 30.1195 12.375 29.1875 12.375C28.2555 12.375 27.5 13.1305 27.5 14.0625C27.5 14.9945 28.2555 15.75 29.1875 15.75Z" fill="#FBBE18"/>
</g>
<g clip-path="url(#clip13_1_182)">
<path d="M42.125 25.875C43.989 25.875 45.5 24.364 45.5 22.5C45.5 20.636 43.989 19.125 42.125 19.125C40.261 19.125 38.75 20.636 38.75 22.5C38.75 24.364 40.261 25.875 42.125 25.875Z" fill="#F68820"/>
</g>
<g clip-path="url(#clip14_1_182)">
<path d="M41 22.5C41.6213 22.5 42.125 21.9963 42.125 21.375C42.125 20.7537 41.6213 20.25 41 20.25C40.3787 20.25 39.875 20.7537 39.875 21.375C39.875 21.9963 40.3787 22.5 41 22.5Z" fill="#FBBE18"/>
</g>
<g clip-path="url(#clip15_1_182)">
<path d="M46.9062 2.53125C46.9062 3.3075 45.5 5.625 45.5 5.625C45.5 5.625 44.0938 3.3075 44.0938 2.53125C44.0938 1.755 44.7237 1.125 45.5 1.125C46.2762 1.125 46.9062 1.755 46.9062 2.53125Z" fill="#F68820"/>
</g>
<g clip-path="url(#clip16_1_182)">
<path d="M41.5749 3.98471C42.2477 4.37396 43.5515 6.74996 43.5515 6.74996C43.5515 6.74996 40.8414 6.80959 40.1687 6.42146C39.4971 6.03221 39.2664 5.17271 39.6546 4.49996C40.0427 3.82721 40.9033 3.59659 41.5749 3.98471Z" fill="#F68820"/>
</g>
<g clip-path="url(#clip17_1_182)">
<path d="M40.1687 9.3285C40.8415 8.94037 43.5516 9 43.5516 9C43.5516 9 42.2477 11.376 41.575 11.7652C40.9022 12.1534 40.0427 11.9227 39.6535 11.25C39.2665 10.5772 39.4971 9.71775 40.1687 9.3285Z" fill="#F68820"/>
</g>
<g clip-path="url(#clip18_1_182)">
<path d="M44.0938 13.2188C44.0938 12.4425 45.5 10.125 45.5 10.125C45.5 10.125 46.9062 12.4425 46.9062 13.2188C46.9062 13.995 46.2762 14.625 45.5 14.625C44.7237 14.625 44.0938 13.995 44.0938 13.2188Z" fill="#F68820"/>
</g>
<g clip-path="url(#clip19_1_182)">
<path d="M49.4251 11.7652C48.7524 11.376 47.4485 9 47.4485 9C47.4485 9 50.1586 8.94037 50.8314 9.3285C51.5041 9.71662 51.7347 10.5772 51.3466 11.25C50.9574 11.9227 50.0967 12.1534 49.4251 11.7652Z" fill="#F68820"/>
</g>
<g clip-path="url(#clip20_1_182)">
<path d="M50.8314 6.42147C50.1586 6.8096 47.4485 6.74997 47.4485 6.74997C47.4485 6.74997 48.7524 4.37397 49.4251 3.98472C50.0979 3.59547 50.9574 3.82722 51.3455 4.49997C51.7336 5.17272 51.503 6.03222 50.8314 6.42147Z" fill="#F68820"/>
</g>
</g>
</g>
<defs>
<clipPath id="clip0_1_182">
<rect width="72" height="72" fill="white" transform="translate(0.5)"/>
</clipPath>
<clipPath id="clip1_1_182">
<rect width="47.2619" height="69.75" fill="white" transform="translate(12.8691 1.125)"/>
</clipPath>
<clipPath id="clip2_1_182">
<rect width="47.2619" height="38.25" fill="white" transform="translate(12.8691 32.625)"/>
</clipPath>
<clipPath id="clip3_1_182">
<rect width="30.381" height="38.25" fill="white" transform="translate(29.75 32.625)"/>
</clipPath>
<clipPath id="clip4_1_182">
<rect width="18" height="4.5" fill="white" transform="translate(27.5 28.125)"/>
</clipPath>
<clipPath id="clip5_1_182">
<rect width="9" height="4.5" fill="white" transform="translate(36.5 28.125)"/>
</clipPath>
<clipPath id="clip6_1_182">
<rect width="36" height="13.643" fill="white" transform="translate(18.5 52.7321)"/>
</clipPath>
<clipPath id="clip7_1_182">
<rect width="36" height="13.643" fill="white" transform="translate(18.5 52.7321)"/>
</clipPath>
<clipPath id="clip8_1_182">
<rect width="14.9591" height="13.6357" fill="white" transform="translate(39.5408 52.7394)"/>
</clipPath>
<clipPath id="clip9_1_182">
<rect width="3.375" height="3.375" fill="white" transform="translate(30.875 59.0625)"/>
</clipPath>
<clipPath id="clip10_1_182">
<rect width="2.25" height="2.25" fill="white" transform="translate(27.5 62.4375)"/>
</clipPath>
<clipPath id="clip11_1_182">
<rect width="11.25" height="11.25" fill="white" transform="translate(25.25 10.125)"/>
</clipPath>
<clipPath id="clip12_1_182">
<rect width="3.375" height="3.375" fill="white" transform="translate(27.5 12.375)"/>
</clipPath>
<clipPath id="clip13_1_182">
<rect width="6.75" height="6.75" fill="white" transform="translate(38.75 19.125)"/>
</clipPath>
<clipPath id="clip14_1_182">
<rect width="2.25" height="2.25" fill="white" transform="translate(39.875 20.25)"/>
</clipPath>
<clipPath id="clip15_1_182">
<rect width="2.8125" height="4.5" fill="white" transform="translate(44.0938 1.125)"/>
</clipPath>
<clipPath id="clip16_1_182">
<rect width="4.08548" height="2.95699" fill="white" transform="translate(39.4661 3.79626)"/>
</clipPath>
<clipPath id="clip17_1_182">
<rect width="4.08582" height="2.95699" fill="white" transform="translate(39.4658 8.9967)"/>
</clipPath>
<clipPath id="clip18_1_182">
<rect width="2.8125" height="4.5" fill="white" transform="translate(44.0938 10.125)"/>
</clipPath>
<clipPath id="clip19_1_182">
<rect width="4.08658" height="2.95699" fill="white" transform="translate(47.4485 8.9967)"/>
</clipPath>
<clipPath id="clip20_1_182">
<rect width="4.08548" height="2.95749" fill="white" transform="translate(47.4485 3.79578)"/>
</clipPath>
</defs>
</svg>
